# xmcd CD database file
#
# Track frame offsets:
#	182
#	12527
#	21252
#	32300
#	43950
#	55417
#	68312
#	79517
#	91317
#	101327
#	111802
#	121160
#	136795
#	147145
#
# Disc length: 2110 seconds
#
# Revision: 4
# Processed by: cddbd v1.5.2PL0 Copyright (c) Steve Scherf et al.
# Submitted via: jetAudio 7
#
DISCID=a9083c0e
DTITLE=Patsy Cline - Crazy and More Country Memories
DYEAR=1990
DGENRE=Country
TTITLE0=Crazy
TTITLE1=Ain't No Wheels On This Ship
TTITLE2=There He Goes
TTITLE3=In Care Of The Blues
TTITLE4=Crazy Dreams
TTITLE5=You're Stronger Than Me
TTITLE6=Dear God
TTITLE7=If I Could Only Stay Asleep
TTITLE8=Strange
TTITLE9=Lovesick Blues
TTITLE10=Back In Baby's Arms
TTITLE11=Why Can't He Be You
TTITLE12=He'll Do For You
TTITLE13=Hungry For Love
EXTD=YEAR: 1990
EXTT0=
EXTT1=
EXTT2=
EXTT3=
EXTT4=
EXTT5=
EXTT6=
EXTT7=
EXTT8=
EXTT9=
EXTT10=
EXTT11=
EXTT12=
EXTT13=
PLAYORDER=
